<?xml version="1.0" encoding="utf-8"?>
<!-- Generator: Adobe Illustrator 25.0.1, SVG Export Plug-In . SVG Version: 6.00 Build 0)  -->
<svg version="1.0" id="katman_1" xmlns="http://www.w3.org/2000/svg" xmlns:xlink="http://www.w3.org/1999/xlink" x="0px" y="0px"
	 viewBox="0 0 560 400" style="enable-background:new 0 0 560 400;" xml:space="preserve">
<style type="text/css">
	.st0{fill:#0B2A4A;}
	.st1{fill:#C3D600;}
	.st2{fill:#00A1E1;}
</style>
<g transform="matrix(4.0537315741 0 0 4.0537315741 100 148.151864737)">
	<path class="st0" d="M5.8-2.3L-7.9,4.4v12l13.7,0V-2.3z"/>
	<path class="st1" d="M9.7,27.9l14.1-7.4l-18-4l-13.6,0l0,7.3L9.7,27.9z"/>
	<path class="st2" d="M-7.9,13.5v10.2l13.7-7.3L-7.9,13.5z"/>
	<path d="M43.2,3.7V1H30.4v12.7h12.8v-2.9h-9.4V8.5h9.4V5.9h-9.4V3.7L43.2,3.7z"/>
	<path d="M79,13.7V1H64.9v12.7H79z M75.6,4v6.7h-7.4V4H75.6z"/>
	<path d="M56.4,7.3L62.2,1h-4.4l-3.8,4.4L50.3,1h-4.4l5.9,6.4l-5.9,6.4h4.4l3.8-4.4l3.8,4.4h4.4L56.4,7.3z"/>
	<path d="M26.6,1h-3.4v6.9L12.7,0.6v13.1H16V6.7L26.6,14V1z"/>
	<path d="M82.8,13.7h3.3V6.6L96.7,14V1h-3.3v6.9L82.8,0.6V13.7z"/>
</g>
</svg>
