<?xml version="1.0" ?><svg id="Layer_1" style="enable-background:new 0 0 60 60;" version="1.1" viewBox="0 0 60 60" xml:space="preserve" xmlns="http://www.w3.org/2000/svg" xmlns:xlink="http://www.w3.org/1999/xlink"><path d="M54,15.34h-0.66c-0.08-0.48-0.47-0.85-0.97-0.85h-0.33c-0.84-1.1-2.14-1.75-3.53-1.75c-0.55,0-1,0.45-1,1v0.75H10.79  c-0.44,0-0.83,0.29-0.96,0.72l-0.14,0.46c-0.45,0.04-1.03,0.05-1.43-0.04c-0.49-0.12-0.99,0.06-1.3,0.44  c-0.31,0.38-0.37,0.89-0.16,1.34l1.46,3.11l-0.68,2.31c-0.1,0.34-0.01,0.71,0.23,0.97c2.63,2.77,2.59,6.52-0.14,11.13  c-1.76,2.98-2.42,6.67-2.66,9.25c-0.08,0.79,0.19,1.57,0.72,2.16c0.53,0.58,1.29,0.92,2.08,0.92h8.7c0.75,0,1.49-0.3,2.02-0.84  c0.51-0.51,0.8-1.19,0.79-1.9c0-7.88,1.92-10.22,2.68-10.84c1.08,0.56,2.35,0.9,3.72,0.9c3.93,0,7.12-2.71,7.12-6.04  c0-1.03-0.3-2.02-0.86-2.89l19.12,0c0.43,0,0.81-0.28,0.95-0.69l1.27-3.84c0.02-0.05,0.01-0.1,0.02-0.16  c0.01-0.05,0.03-0.1,0.03-0.16v-0.01H54c0.55,0,1-0.45,1-1v-3.46C55,15.79,54.55,15.34,54,15.34z M25.72,32.58  c-2.83,0-5.13-1.81-5.13-4.04c0-1.09,0.56-2.13,1.56-2.89l1.29,0c0,1.76,0.62,4.11,2.99,4.96c0.11,0.04,0.23,0.06,0.34,0.06  c0.41,0,0.8-0.25,0.94-0.66c0.19-0.52-0.08-1.09-0.6-1.28c-1.44-0.51-1.67-2.09-1.66-3.07l3.85,0c0.99,0.76,1.56,1.8,1.56,2.89  C30.84,30.77,28.54,32.58,25.72,32.58z M29.66,23.65c-0.04,0-0.08,0-0.12,0l-7.72,0c0,0,0,0,0,0c0,0,0,0,0,0  c-0.21,0-0.41,0.07-0.57,0.18c-1.69,1.15-2.66,2.87-2.66,4.71c0,1.51,0.66,2.89,1.75,3.95c-1.3,1.33-3.02,4.51-3.02,12.03  c0,0.23-0.11,0.39-0.21,0.48c-0.16,0.16-0.38,0.25-0.6,0.25h-8.7c-0.23,0-0.45-0.09-0.61-0.27C7.06,44.82,6.98,44.6,7,44.37  c0.18-1.94,0.74-5.62,2.4-8.42c3.05-5.17,3.14-9.68,0.26-13.08l1.88-6.37h39.83v3.31v0.01H14.92c-0.55,0-1,0.45-1,1s0.45,1,1,1  h36.06l-0.61,1.84L29.66,23.65z"/></svg>