<svg width="1200" height="500" viewBox="0 0 1200 500" fill="none" xmlns="http://www.w3.org/2000/svg">
<g filter="url(#filter0_d_0_1)">
<path d="M205.564 372.4V381H75.9641V372.4H95.3641V241.2H126.564V353.2H186.164V372.4H205.564Z" fill="white"/>
</g>
<g filter="url(#filter1_d_0_1)">
<path d="M1064.2 303L1113.6 372.4H1130.2V381H1083.4L1042.4 325.8L1028.4 341.4V381H980.004V372.4H997.204V241.2H1028.4V298.6L1081.2 241.2H1119.8L1064.2 303Z" fill="white"/>
</g>
<g filter="url(#filter2_d_0_1)">
<path d="M857.544 372.4V241.2H910.544C932.277 241.2 947.744 244.867 956.944 252.2C966.277 259.533 970.944 271.333 970.944 287.6C970.944 310 962.077 324.467 944.344 331L973.544 372.4H992.344V381H941.344L910.344 336.4H888.744V381H838.144V372.4H857.544ZM911.544 309.4C922.21 309.4 929.477 307.667 933.344 304.2C937.21 300.733 939.144 295.267 939.144 287.8C939.144 280.2 937.144 275 933.144 272.2C929.144 269.4 922.144 268 912.144 268H888.744V309.4H911.544Z" fill="white"/>
</g>
<g filter="url(#filter3_d_0_1)">
<path d="M866.888 372.4V381H814.288L801.288 350.8H742.688L729.688 381H677.088V372.4H700.088L756.888 241.2H787.088L843.688 372.4H866.888ZM772.088 282.8L754.488 323.4H789.488L772.088 282.8Z" fill="white"/>
</g>
<g filter="url(#filter4_d_0_1)">
<mask id="path-5-outside-1_0_1" maskUnits="userSpaceOnUse" x="441" y="64" width="333" height="368" fill="black">
<rect fill="white" x="441" y="64" width="333" height="368"/>
<path d="M558.24 96.7715L563.123 104.34C536.105 121.592 516.167 141.449 503.309 163.91C490.613 186.208 484.266 210.134 484.266 235.688C484.266 268.565 495.496 299.978 517.957 329.926C527.397 322.113 533.094 315.603 535.047 310.395C537 305.023 537.977 291.352 537.977 269.379V157.074L644.666 66.0098C664.523 75.6126 681.206 82.2858 694.715 86.0293C708.387 89.7728 721.814 91.6445 734.998 91.6445C741.834 91.6445 750.298 90.9121 760.389 89.4473L766.492 96.7715L682.264 181.977H748.182L721.57 228.852H628.797V387.055L644.422 387.787C667.534 387.787 690.483 382.009 713.27 370.453C730.522 361.827 748.263 348.318 766.492 329.926L772.352 339.203C753.471 368.663 732.638 390.554 709.852 404.877C682.02 422.292 650.281 431 614.637 431C558.484 431 514.132 411.632 481.58 372.895C455.701 342.133 442.762 306.081 442.762 264.74C442.762 239.024 448.051 215.098 458.631 192.963C469.21 170.665 484.103 150.727 503.309 133.148C516.98 120.779 535.291 108.653 558.24 96.7715ZM617.566 108.734L587.781 133.637V246.918C587.781 259.451 587.049 268.158 585.584 273.041C584.282 277.924 581.108 283.214 576.062 288.91C565.32 301.605 548.068 317.8 524.305 337.494C538.465 352.468 552.462 363.617 566.297 370.941C580.294 378.266 597.384 383.311 617.566 386.078V108.734ZM711.072 136.322C693.982 133.881 679.904 130.951 668.836 127.533C657.931 124.115 644.585 118.5 628.797 110.688V219.818L711.072 136.322Z"/>
</mask>
<path d="M558.24 96.7715L563.123 104.34C536.105 121.592 516.167 141.449 503.309 163.91C490.613 186.208 484.266 210.134 484.266 235.688C484.266 268.565 495.496 299.978 517.957 329.926C527.397 322.113 533.094 315.603 535.047 310.395C537 305.023 537.977 291.352 537.977 269.379V157.074L644.666 66.0098C664.523 75.6126 681.206 82.2858 694.715 86.0293C708.387 89.7728 721.814 91.6445 734.998 91.6445C741.834 91.6445 750.298 90.9121 760.389 89.4473L766.492 96.7715L682.264 181.977H748.182L721.57 228.852H628.797V387.055L644.422 387.787C667.534 387.787 690.483 382.009 713.27 370.453C730.522 361.827 748.263 348.318 766.492 329.926L772.352 339.203C753.471 368.663 732.638 390.554 709.852 404.877C682.02 422.292 650.281 431 614.637 431C558.484 431 514.132 411.632 481.58 372.895C455.701 342.133 442.762 306.081 442.762 264.74C442.762 239.024 448.051 215.098 458.631 192.963C469.21 170.665 484.103 150.727 503.309 133.148C516.98 120.779 535.291 108.653 558.24 96.7715ZM617.566 108.734L587.781 133.637V246.918C587.781 259.451 587.049 268.158 585.584 273.041C584.282 277.924 581.108 283.214 576.062 288.91C565.32 301.605 548.068 317.8 524.305 337.494C538.465 352.468 552.462 363.617 566.297 370.941C580.294 378.266 597.384 383.311 617.566 386.078V108.734ZM711.072 136.322C693.982 133.881 679.904 130.951 668.836 127.533C657.931 124.115 644.585 118.5 628.797 110.688V219.818L711.072 136.322Z" fill="#493697"/>
<path d="M558.24 96.7715L559.081 96.2294L558.588 95.4655L557.78 95.8834L558.24 96.7715ZM563.123 104.34L563.661 105.183L564.508 104.642L563.963 103.798L563.123 104.34ZM503.309 163.91L502.441 163.413L502.44 163.415L503.309 163.91ZM517.957 329.926L517.157 330.526L517.786 331.365L518.595 330.696L517.957 329.926ZM535.047 310.395L535.983 310.746L535.987 310.736L535.047 310.395ZM537.977 157.074L537.327 156.314L536.977 156.613V157.074H537.977ZM644.666 66.0098L645.101 65.1095L644.514 64.8252L644.017 65.2492L644.666 66.0098ZM694.715 86.0293L694.448 86.993L694.451 86.9938L694.715 86.0293ZM760.389 89.4473L761.157 88.8071L760.799 88.3773L760.245 88.4576L760.389 89.4473ZM766.492 96.7715L767.203 97.4745L767.842 96.8288L767.26 96.1313L766.492 96.7715ZM682.264 181.977L681.552 181.274L679.869 182.977H682.264V181.977ZM748.182 181.977L749.051 182.47L749.899 180.977H748.182V181.977ZM721.57 228.852V229.852H722.153L722.44 229.345L721.57 228.852ZM628.797 228.852V227.852H627.797V228.852H628.797ZM628.797 387.055H627.797V388.009L628.75 388.054L628.797 387.055ZM644.422 387.787L644.375 388.786L644.398 388.787H644.422V387.787ZM713.27 370.453L712.822 369.559L712.817 369.561L713.27 370.453ZM766.492 329.926L767.338 329.392L766.667 328.329L765.782 329.222L766.492 329.926ZM772.352 339.203L773.193 339.743L773.537 339.207L773.197 338.669L772.352 339.203ZM709.852 404.877L710.382 405.725L710.384 405.724L709.852 404.877ZM481.58 372.895L482.346 372.251L482.345 372.251L481.58 372.895ZM458.631 192.963L459.533 193.394L459.534 193.392L458.631 192.963ZM503.309 133.148L502.638 132.407L502.633 132.411L503.309 133.148ZM617.566 108.734H618.566V106.595L616.925 107.967L617.566 108.734ZM587.781 133.637L587.14 132.87L586.781 133.169V133.637H587.781ZM585.584 273.041L584.626 272.754L584.622 272.768L584.618 272.783L585.584 273.041ZM576.062 288.91L575.314 288.247L575.306 288.256L575.299 288.264L576.062 288.91ZM524.305 337.494L523.667 336.724L522.845 337.405L523.578 338.181L524.305 337.494ZM566.297 370.941L565.829 371.825L565.833 371.827L566.297 370.941ZM617.566 386.078L617.431 387.069L618.566 387.225V386.078H617.566ZM711.072 136.322L711.785 137.024L713.176 135.613L711.214 135.332L711.072 136.322ZM668.836 127.533L668.537 128.487L668.541 128.489L668.836 127.533ZM628.797 110.688L629.24 109.791L627.797 109.077V110.688H628.797ZM628.797 219.818H627.797V222.258L629.509 220.52L628.797 219.818ZM557.4 97.3136L562.283 104.882L563.963 103.798L559.081 96.2294L557.4 97.3136ZM562.585 103.497C535.462 120.816 515.396 140.783 502.441 163.413L504.176 164.407C516.937 142.116 536.747 122.369 563.661 105.183L562.585 103.497ZM502.44 163.415C489.659 185.864 483.266 209.96 483.266 235.688H485.266C485.266 210.308 491.568 186.553 504.178 164.405L502.44 163.415ZM483.266 235.688C483.266 268.811 494.585 300.43 517.157 330.526L518.757 329.326C496.407 299.526 485.266 268.319 485.266 235.688H483.266ZM518.595 330.696C528.044 322.876 533.93 316.222 535.983 310.746L534.111 310.043C532.258 314.984 526.751 321.35 517.319 329.155L518.595 330.696ZM535.987 310.736C537.016 307.906 537.753 303.019 538.242 296.184C538.732 289.314 538.977 280.377 538.977 269.379H536.977C536.977 280.354 536.733 289.239 536.247 296.041C535.758 302.877 535.031 307.512 534.107 310.053L535.987 310.736ZM538.977 269.379V157.074H536.977V269.379H538.977ZM538.626 157.835L645.315 66.7704L644.017 65.2492L537.327 156.314L538.626 157.835ZM644.231 66.91C664.115 76.526 680.858 83.2271 694.448 86.993L694.982 85.0656C681.554 81.3446 664.931 74.6992 645.101 65.1095L644.231 66.91ZM694.451 86.9938C708.202 90.7591 721.719 92.6445 734.998 92.6445V90.6445C721.91 90.6445 708.571 88.7865 694.979 85.0648L694.451 86.9938ZM734.998 92.6445C741.899 92.6445 750.414 91.9056 760.532 90.4369L760.245 88.4576C750.181 89.9186 741.769 90.6445 734.998 90.6445V92.6445ZM759.62 90.0874L765.724 97.4117L767.26 96.1313L761.157 88.8071L759.62 90.0874ZM765.781 96.0685L681.552 181.274L682.975 182.68L767.203 97.4745L765.781 96.0685ZM682.264 182.977H748.182V180.977H682.264V182.977ZM747.312 181.483L720.701 228.358L722.44 229.345L749.051 182.47L747.312 181.483ZM721.57 227.852H628.797V229.852H721.57V227.852ZM627.797 228.852V387.055H629.797V228.852H627.797ZM628.75 388.054L644.375 388.786L644.469 386.788L628.844 386.056L628.75 388.054ZM644.422 388.787C667.707 388.787 690.81 382.964 713.722 371.345L712.817 369.561C690.156 381.054 667.361 386.787 644.422 386.787V388.787ZM713.717 371.348C731.094 362.659 748.921 349.074 767.202 330.63L765.782 329.222C747.605 347.561 729.951 360.995 712.822 369.559L713.717 371.348ZM765.647 330.46L771.506 339.737L773.197 338.669L767.338 329.392L765.647 330.46ZM771.51 338.664C752.686 368.035 731.95 389.806 709.319 404.03L710.384 405.724C733.326 391.303 754.257 369.291 773.193 339.743L771.51 338.664ZM709.321 404.029C681.662 421.337 650.11 430 614.637 430V432C650.452 432 682.377 423.248 710.382 405.725L709.321 404.029ZM614.637 430C558.743 430 514.685 410.735 482.346 372.251L480.814 373.538C513.579 412.528 558.226 432 614.637 432V430ZM482.345 372.251C456.623 341.675 443.762 305.853 443.762 264.74H441.762C441.762 306.31 454.78 342.591 480.815 373.538L482.345 372.251ZM443.762 264.74C443.762 239.166 449.021 215.388 459.533 193.394L457.729 192.532C447.082 214.808 441.762 238.882 441.762 264.74H443.762ZM459.534 193.392C470.055 171.216 484.868 151.382 503.984 133.886L502.633 132.411C483.338 150.071 468.365 170.113 457.727 192.534L459.534 193.392ZM503.98 133.89C517.568 121.596 535.799 109.516 558.7 97.6595L557.78 95.8834C534.783 107.79 516.393 119.961 502.638 132.407L503.98 133.89ZM616.925 107.967L587.14 132.87L588.423 134.404L618.208 109.502L616.925 107.967ZM586.781 133.637V246.918H588.781V133.637H586.781ZM586.781 246.918C586.781 259.454 586.044 268.027 584.626 272.754L586.542 273.328C588.053 268.289 588.781 259.447 588.781 246.918H586.781ZM584.618 272.783C583.371 277.459 580.304 282.613 575.314 288.247L576.811 289.573C581.912 283.814 585.193 278.388 586.55 273.299L584.618 272.783ZM575.299 288.264C564.614 300.892 547.416 317.042 523.667 336.724L524.943 338.264C548.72 318.559 566.026 302.319 576.826 289.556L575.299 288.264ZM523.578 338.181C537.791 353.211 551.873 364.437 565.829 371.825L566.765 370.058C553.052 362.798 539.139 351.725 525.031 336.807L523.578 338.181ZM565.833 371.827C579.958 379.218 597.165 384.291 617.431 387.069L617.702 385.087C597.603 382.332 580.631 377.313 566.76 370.055L565.833 371.827ZM618.566 386.078V108.734H616.566V386.078H618.566ZM711.214 135.332C694.153 132.895 680.131 129.975 669.131 126.578L668.541 128.489C679.677 131.928 693.812 134.867 710.931 137.312L711.214 135.332ZM669.135 126.579C658.299 123.182 645.004 117.592 629.24 109.791L628.353 111.584C644.166 119.408 657.563 125.048 668.537 128.487L669.135 126.579ZM627.797 110.688V219.818H629.797V110.688H627.797ZM629.509 220.52L711.785 137.024L710.36 135.62L628.085 219.116L629.509 220.52Z" fill="#493697" mask="url(#path-5-outside-1_0_1)"/>
</g>
<g filter="url(#filter5_d_0_1)">
<path d="M488.83 372.4V381H361.23V372.4H388.43C381.097 368.667 374.43 363.867 368.43 358L387.03 335.2C402.097 348.4 416.03 355 428.83 355C434.564 355 439.03 353.8 442.23 351.4C445.564 348.867 447.23 345.533 447.23 341.4C447.23 337.133 445.497 333.8 442.03 331.4C438.564 328.867 431.697 326.333 421.43 323.8C405.164 319.933 393.23 314.933 385.63 308.8C378.164 302.533 374.43 292.8 374.43 279.6C374.43 266.267 379.164 256 388.63 248.8C398.23 241.6 410.164 238 424.43 238C433.764 238 443.097 239.6 452.43 242.8C461.764 246 469.897 250.533 476.83 256.4L461.03 279.2C448.897 270 436.364 265.4 423.43 265.4C418.23 265.4 414.097 266.667 411.03 269.2C408.097 271.6 406.63 274.867 406.63 279C406.63 283 408.43 286.2 412.03 288.6C415.764 291 424.23 293.867 437.43 297.2C450.764 300.4 461.097 305.267 468.43 311.8C475.764 318.333 479.43 327.4 479.43 339C479.43 353.4 474.03 364.533 463.23 372.4H488.83Z" fill="white"/>
</g>
<g filter="url(#filter6_d_0_1)">
<path d="M359.583 372.4V381H194.383V372.4H238.983C228.049 366.133 219.383 357.533 212.983 346.6C206.716 335.667 203.583 323.533 203.583 310.2C203.583 289.667 210.649 272.533 224.783 258.8C238.916 244.933 256.316 238 276.983 238C297.649 238 315.049 244.933 329.183 258.8C343.316 272.533 350.383 289.667 350.383 310.2C350.383 323.533 347.183 335.667 340.783 346.6C334.383 357.533 325.783 366.133 314.983 372.4H359.583ZM318.583 310.4C318.583 297.867 314.583 287.2 306.583 278.4C298.583 269.6 288.716 265.2 276.983 265.2C265.383 265.2 255.583 269.6 247.583 278.4C239.583 287.2 235.583 297.867 235.583 310.4C235.583 322.8 239.583 333.4 247.583 342.2C255.583 350.867 265.383 355.2 276.983 355.2C288.716 355.2 298.583 350.867 306.583 342.2C314.583 333.4 318.583 322.8 318.583 310.4Z" fill="white"/>
</g>
<defs>
<filter id="filter0_d_0_1" x="73.9641" y="239.2" width="141.6" height="151.8" filterUnits="userSpaceOnUse" color-interpolation-filters="sRGB">
<feFlood flood-opacity="0" result="BackgroundImageFix"/>
<feColorMatrix in="SourceAlpha" type="matrix" values="0 0 0 0 0 0 0 0 0 0 0 0 0 0 0 0 0 0 127 0" result="hardAlpha"/>
<feOffset dx="4" dy="4"/>
<feGaussianBlur stdDeviation="3"/>
<feComposite in2="hardAlpha" operator="out"/>
<feColorMatrix type="matrix" values="0 0 0 0 0.287944 0 0 0 0 0.212014 0 0 0 0 0.591667 0 0 0 1 0"/>
<feBlend mode="difference" in2="BackgroundImageFix" result="effect1_dropShadow_0_1"/>
<feBlend mode="normal" in="SourceGraphic" in2="effect1_dropShadow_0_1" result="shape"/>
</filter>
<filter id="filter1_d_0_1" x="978.004" y="239.2" width="162.2" height="151.8" filterUnits="userSpaceOnUse" color-interpolation-filters="sRGB">
<feFlood flood-opacity="0" result="BackgroundImageFix"/>
<feColorMatrix in="SourceAlpha" type="matrix" values="0 0 0 0 0 0 0 0 0 0 0 0 0 0 0 0 0 0 127 0" result="hardAlpha"/>
<feOffset dx="4" dy="4"/>
<feGaussianBlur stdDeviation="3"/>
<feComposite in2="hardAlpha" operator="out"/>
<feColorMatrix type="matrix" values="0 0 0 0 0.287944 0 0 0 0 0.212014 0 0 0 0 0.591667 0 0 0 1 0"/>
<feBlend mode="difference" in2="BackgroundImageFix" result="effect1_dropShadow_0_1"/>
<feBlend mode="normal" in="SourceGraphic" in2="effect1_dropShadow_0_1" result="shape"/>
</filter>
<filter id="filter2_d_0_1" x="836.144" y="239.2" width="166.2" height="151.8" filterUnits="userSpaceOnUse" color-interpolation-filters="sRGB">
<feFlood flood-opacity="0" result="BackgroundImageFix"/>
<feColorMatrix in="SourceAlpha" type="matrix" values="0 0 0 0 0 0 0 0 0 0 0 0 0 0 0 0 0 0 127 0" result="hardAlpha"/>
<feOffset dx="4" dy="4"/>
<feGaussianBlur stdDeviation="3"/>
<feComposite in2="hardAlpha" operator="out"/>
<feColorMatrix type="matrix" values="0 0 0 0 0.287944 0 0 0 0 0.212014 0 0 0 0 0.591667 0 0 0 1 0"/>
<feBlend mode="difference" in2="BackgroundImageFix" result="effect1_dropShadow_0_1"/>
<feBlend mode="normal" in="SourceGraphic" in2="effect1_dropShadow_0_1" result="shape"/>
</filter>
<filter id="filter3_d_0_1" x="675.088" y="239.2" width="201.8" height="151.8" filterUnits="userSpaceOnUse" color-interpolation-filters="sRGB">
<feFlood flood-opacity="0" result="BackgroundImageFix"/>
<feColorMatrix in="SourceAlpha" type="matrix" values="0 0 0 0 0 0 0 0 0 0 0 0 0 0 0 0 0 0 127 0" result="hardAlpha"/>
<feOffset dx="4" dy="4"/>
<feGaussianBlur stdDeviation="3"/>
<feComposite in2="hardAlpha" operator="out"/>
<feColorMatrix type="matrix" values="0 0 0 0 0.287944 0 0 0 0 0.212014 0 0 0 0 0.591667 0 0 0 1 0"/>
<feBlend mode="difference" in2="BackgroundImageFix" result="effect1_dropShadow_0_1"/>
<feBlend mode="normal" in="SourceGraphic" in2="effect1_dropShadow_0_1" result="shape"/>
</filter>
<filter id="filter4_d_0_1" x="431.762" y="55.0098" width="359.59" height="394.99" filterUnits="userSpaceOnUse" color-interpolation-filters="sRGB">
<feFlood flood-opacity="0" result="BackgroundImageFix"/>
<feColorMatrix in="SourceAlpha" type="matrix" values="0 0 0 0 0 0 0 0 0 0 0 0 0 0 0 0 0 0 127 0" result="hardAlpha"/>
<feOffset dx="4" dy="4"/>
<feGaussianBlur stdDeviation="7.5"/>
<feComposite in2="hardAlpha" operator="out"/>
<feColorMatrix type="matrix" values="0 0 0 0 0.491077 0 0 0 0 0.29276 0 0 0 0 0.9125 0 0 0 1 0"/>
<feBlend mode="exclusion" in2="BackgroundImageFix" result="effect1_dropShadow_0_1"/>
<feBlend mode="normal" in="SourceGraphic" in2="effect1_dropShadow_0_1" result="shape"/>
</filter>
<filter id="filter5_d_0_1" x="359.23" y="236" width="139.6" height="155" filterUnits="userSpaceOnUse" color-interpolation-filters="sRGB">
<feFlood flood-opacity="0" result="BackgroundImageFix"/>
<feColorMatrix in="SourceAlpha" type="matrix" values="0 0 0 0 0 0 0 0 0 0 0 0 0 0 0 0 0 0 127 0" result="hardAlpha"/>
<feOffset dx="4" dy="4"/>
<feGaussianBlur stdDeviation="3"/>
<feComposite in2="hardAlpha" operator="out"/>
<feColorMatrix type="matrix" values="0 0 0 0 0.287944 0 0 0 0 0.212014 0 0 0 0 0.591667 0 0 0 1 0"/>
<feBlend mode="difference" in2="BackgroundImageFix" result="effect1_dropShadow_0_1"/>
<feBlend mode="normal" in="SourceGraphic" in2="effect1_dropShadow_0_1" result="shape"/>
</filter>
<filter id="filter6_d_0_1" x="192.383" y="236" width="177.2" height="155" filterUnits="userSpaceOnUse" color-interpolation-filters="sRGB">
<feFlood flood-opacity="0" result="BackgroundImageFix"/>
<feColorMatrix in="SourceAlpha" type="matrix" values="0 0 0 0 0 0 0 0 0 0 0 0 0 0 0 0 0 0 127 0" result="hardAlpha"/>
<feOffset dx="4" dy="4"/>
<feGaussianBlur stdDeviation="3"/>
<feComposite in2="hardAlpha" operator="out"/>
<feColorMatrix type="matrix" values="0 0 0 0 0.287944 0 0 0 0 0.212014 0 0 0 0 0.591667 0 0 0 1 0"/>
<feBlend mode="difference" in2="BackgroundImageFix" result="effect1_dropShadow_0_1"/>
<feBlend mode="normal" in="SourceGraphic" in2="effect1_dropShadow_0_1" result="shape"/>
</filter>
</defs>
</svg>
