<svg width="1200" height="675" viewBox="0 0 1200 675" fill="none" xmlns="http://www.w3.org/2000/svg">
<g filter="url(#filter0_d_1_95)">
<path d="M205.564 460.4V469H75.9641V460.4H95.3641V329.2H126.564V441.2H186.164V460.4H205.564Z" fill="white"/>
</g>
<g filter="url(#filter1_d_1_95)">
<path d="M1064.2 391L1113.6 460.4H1130.2V469H1083.4L1042.4 413.8L1028.4 429.4V469H980.004V460.4H997.204V329.2H1028.4V386.6L1081.2 329.2H1119.8L1064.2 391Z" fill="white"/>
</g>
<g filter="url(#filter2_d_1_95)">
<path d="M857.544 460.4V329.2H910.544C932.277 329.2 947.744 332.867 956.944 340.2C966.277 347.533 970.944 359.333 970.944 375.6C970.944 398 962.077 412.467 944.344 419L973.544 460.4H992.344V469H941.344L910.344 424.4H888.744V469H838.144V460.4H857.544ZM911.544 397.4C922.21 397.4 929.477 395.667 933.344 392.2C937.21 388.733 939.144 383.267 939.144 375.8C939.144 368.2 937.144 363 933.144 360.2C929.144 357.4 922.144 356 912.144 356H888.744V397.4H911.544Z" fill="white"/>
</g>
<g filter="url(#filter3_d_1_95)">
<path d="M866.888 460.4V469H814.288L801.288 438.8H742.688L729.688 469H677.088V460.4H700.088L756.888 329.2H787.088L843.688 460.4H866.888ZM772.088 370.8L754.488 411.4H789.488L772.088 370.8Z" fill="white"/>
</g>
<g filter="url(#filter4_d_1_95)">
<mask id="path-5-outside-1_1_95" maskUnits="userSpaceOnUse" x="441" y="152" width="333" height="368" fill="black">
<rect fill="white" x="441" y="152" width="333" height="368"/>
<path d="M558.24 184.771L563.123 192.34C536.105 209.592 516.167 229.449 503.309 251.91C490.613 274.208 484.266 298.134 484.266 323.688C484.266 356.565 495.496 387.978 517.957 417.926C527.397 410.113 533.094 403.603 535.047 398.395C537 393.023 537.977 379.352 537.977 357.379V245.074L644.666 154.01C664.523 163.613 681.206 170.286 694.715 174.029C708.387 177.773 721.814 179.645 734.998 179.645C741.834 179.645 750.298 178.912 760.389 177.447L766.492 184.771L682.264 269.977H748.182L721.57 316.852H628.797V475.055L644.422 475.787C667.534 475.787 690.483 470.009 713.27 458.453C730.522 449.827 748.263 436.318 766.492 417.926L772.352 427.203C753.471 456.663 732.638 478.554 709.852 492.877C682.02 510.292 650.281 519 614.637 519C558.484 519 514.132 499.632 481.58 460.895C455.701 430.133 442.762 394.081 442.762 352.74C442.762 327.024 448.051 303.098 458.631 280.963C469.21 258.665 484.103 238.727 503.309 221.148C516.98 208.779 535.291 196.653 558.24 184.771ZM617.566 196.734L587.781 221.637V334.918C587.781 347.451 587.049 356.158 585.584 361.041C584.282 365.924 581.108 371.214 576.062 376.91C565.32 389.605 548.068 405.8 524.305 425.494C538.465 440.468 552.462 451.617 566.297 458.941C580.294 466.266 597.384 471.311 617.566 474.078V196.734ZM711.072 224.322C693.982 221.881 679.904 218.951 668.836 215.533C657.931 212.115 644.585 206.5 628.797 198.688V307.818L711.072 224.322Z"/>
</mask>
<path d="M558.24 184.771L563.123 192.34C536.105 209.592 516.167 229.449 503.309 251.91C490.613 274.208 484.266 298.134 484.266 323.688C484.266 356.565 495.496 387.978 517.957 417.926C527.397 410.113 533.094 403.603 535.047 398.395C537 393.023 537.977 379.352 537.977 357.379V245.074L644.666 154.01C664.523 163.613 681.206 170.286 694.715 174.029C708.387 177.773 721.814 179.645 734.998 179.645C741.834 179.645 750.298 178.912 760.389 177.447L766.492 184.771L682.264 269.977H748.182L721.57 316.852H628.797V475.055L644.422 475.787C667.534 475.787 690.483 470.009 713.27 458.453C730.522 449.827 748.263 436.318 766.492 417.926L772.352 427.203C753.471 456.663 732.638 478.554 709.852 492.877C682.02 510.292 650.281 519 614.637 519C558.484 519 514.132 499.632 481.58 460.895C455.701 430.133 442.762 394.081 442.762 352.74C442.762 327.024 448.051 303.098 458.631 280.963C469.21 258.665 484.103 238.727 503.309 221.148C516.98 208.779 535.291 196.653 558.24 184.771ZM617.566 196.734L587.781 221.637V334.918C587.781 347.451 587.049 356.158 585.584 361.041C584.282 365.924 581.108 371.214 576.062 376.91C565.32 389.605 548.068 405.8 524.305 425.494C538.465 440.468 552.462 451.617 566.297 458.941C580.294 466.266 597.384 471.311 617.566 474.078V196.734ZM711.072 224.322C693.982 221.881 679.904 218.951 668.836 215.533C657.931 212.115 644.585 206.5 628.797 198.688V307.818L711.072 224.322Z" fill="#493697"/>
<path d="M558.24 184.771L559.081 184.229L558.588 183.466L557.78 183.883L558.24 184.771ZM563.123 192.34L563.661 193.183L564.508 192.642L563.963 191.798L563.123 192.34ZM503.309 251.91L502.441 251.413L502.44 251.415L503.309 251.91ZM517.957 417.926L517.157 418.526L517.786 419.365L518.595 418.696L517.957 417.926ZM535.047 398.395L535.983 398.746L535.987 398.736L535.047 398.395ZM537.977 245.074L537.327 244.314L536.977 244.613V245.074H537.977ZM644.666 154.01L645.101 153.11L644.513 152.825L644.017 153.249L644.666 154.01ZM694.715 174.029L694.448 174.993L694.451 174.994L694.715 174.029ZM760.389 177.447L761.157 176.807L760.799 176.377L760.245 176.458L760.389 177.447ZM766.492 184.771L767.203 185.475L767.842 184.829L767.26 184.131L766.492 184.771ZM682.264 269.977L681.553 269.274L679.869 270.977H682.264V269.977ZM748.182 269.977L749.051 270.47L749.899 268.977H748.182V269.977ZM721.57 316.852V317.852H722.153L722.44 317.345L721.57 316.852ZM628.797 316.852V315.852H627.797V316.852H628.797ZM628.797 475.055H627.797V476.009L628.75 476.054L628.797 475.055ZM644.422 475.787L644.375 476.786L644.398 476.787H644.422V475.787ZM713.27 458.453L712.822 457.559L712.817 457.561L713.27 458.453ZM766.492 417.926L767.338 417.392L766.667 416.329L765.782 417.222L766.492 417.926ZM772.352 427.203L773.193 427.743L773.537 427.207L773.197 426.669L772.352 427.203ZM709.852 492.877L710.382 493.725L710.384 493.724L709.852 492.877ZM481.58 460.895L482.346 460.251L482.345 460.251L481.58 460.895ZM458.631 280.963L459.533 281.394L459.534 281.392L458.631 280.963ZM503.309 221.148L502.638 220.407L502.633 220.411L503.309 221.148ZM617.566 196.734H618.566V194.595L616.925 195.967L617.566 196.734ZM587.781 221.637L587.14 220.87L586.781 221.169V221.637H587.781ZM585.584 361.041L584.626 360.754L584.622 360.768L584.618 360.783L585.584 361.041ZM576.062 376.91L575.314 376.247L575.306 376.256L575.299 376.264L576.062 376.91ZM524.305 425.494L523.667 424.724L522.845 425.405L523.578 426.181L524.305 425.494ZM566.297 458.941L565.829 459.825L565.833 459.827L566.297 458.941ZM617.566 474.078L617.431 475.069L618.566 475.225V474.078H617.566ZM711.072 224.322L711.785 225.024L713.175 223.613L711.214 223.332L711.072 224.322ZM668.836 215.533L668.537 216.487L668.541 216.489L668.836 215.533ZM628.797 198.688L629.24 197.791L627.797 197.077V198.688H628.797ZM628.797 307.818H627.797V310.258L629.509 308.52L628.797 307.818ZM557.4 185.314L562.283 192.882L563.963 191.798L559.081 184.229L557.4 185.314ZM562.585 191.497C535.462 208.816 515.396 228.783 502.441 251.413L504.176 252.407C516.937 230.116 536.747 210.369 563.661 193.183L562.585 191.497ZM502.44 251.415C489.659 273.864 483.266 297.96 483.266 323.688H485.266C485.266 298.308 491.568 274.553 504.178 252.405L502.44 251.415ZM483.266 323.688C483.266 356.811 494.585 388.43 517.157 418.526L518.757 417.326C496.407 387.526 485.266 356.319 485.266 323.688H483.266ZM518.595 418.696C528.044 410.876 533.93 404.222 535.983 398.746L534.111 398.043C532.258 402.984 526.751 409.35 517.319 417.155L518.595 418.696ZM535.987 398.736C537.016 395.906 537.753 391.019 538.242 384.184C538.732 377.314 538.977 368.377 538.977 357.379H536.977C536.977 368.354 536.733 377.239 536.247 384.041C535.758 390.877 535.031 395.512 534.107 398.053L535.987 398.736ZM538.977 357.379V245.074H536.977V357.379H538.977ZM538.626 245.835L645.315 154.77L644.017 153.249L537.327 244.314L538.626 245.835ZM644.231 154.91C664.115 164.526 680.858 171.227 694.448 174.993L694.982 173.066C681.554 169.345 664.931 162.699 645.101 153.11L644.231 154.91ZM694.451 174.994C708.202 178.759 721.719 180.645 734.998 180.645V178.645C721.91 178.645 708.571 176.786 694.979 173.065L694.451 174.994ZM734.998 180.645C741.899 180.645 750.414 179.906 760.532 178.437L760.245 176.458C750.181 177.919 741.769 178.645 734.998 178.645V180.645ZM759.62 178.087L765.724 185.412L767.26 184.131L761.157 176.807L759.62 178.087ZM765.781 184.068L681.553 269.274L682.975 270.68L767.203 185.475L765.781 184.068ZM682.264 270.977H748.182V268.977H682.264V270.977ZM747.312 269.483L720.701 316.358L722.44 317.345L749.051 270.47L747.312 269.483ZM721.57 315.852H628.797V317.852H721.57V315.852ZM627.797 316.852V475.055H629.797V316.852H627.797ZM628.75 476.054L644.375 476.786L644.469 474.788L628.844 474.056L628.75 476.054ZM644.422 476.787C667.707 476.787 690.81 470.964 713.722 459.345L712.817 457.561C690.156 469.054 667.361 474.787 644.422 474.787V476.787ZM713.717 459.348C731.094 450.659 748.921 437.074 767.202 418.63L765.782 417.222C747.605 435.561 729.951 448.995 712.822 457.559L713.717 459.348ZM765.647 418.46L771.506 427.737L773.197 426.669L767.338 417.392L765.647 418.46ZM771.51 426.664C752.686 456.035 731.95 477.806 709.319 492.03L710.384 493.724C733.326 479.303 754.257 457.291 773.193 427.743L771.51 426.664ZM709.321 492.029C681.662 509.337 650.11 518 614.637 518V520C650.452 520 682.377 511.248 710.382 493.725L709.321 492.029ZM614.637 518C558.743 518 514.685 498.735 482.346 460.251L480.815 461.538C513.579 500.528 558.226 520 614.637 520V518ZM482.345 460.251C456.623 429.675 443.762 393.853 443.762 352.74H441.762C441.762 394.31 454.78 430.591 480.815 461.538L482.345 460.251ZM443.762 352.74C443.762 327.166 449.021 303.388 459.533 281.394L457.729 280.532C447.082 302.808 441.762 326.882 441.762 352.74H443.762ZM459.534 281.392C470.055 259.216 484.868 239.382 503.984 221.886L502.633 220.411C483.338 238.071 468.365 258.113 457.727 280.534L459.534 281.392ZM503.98 221.89C517.568 209.596 535.799 197.516 558.7 185.66L557.78 183.883C534.783 195.79 516.393 207.961 502.638 220.407L503.98 221.89ZM616.925 195.967L587.14 220.87L588.423 222.404L618.208 197.502L616.925 195.967ZM586.781 221.637V334.918H588.781V221.637H586.781ZM586.781 334.918C586.781 347.454 586.044 356.027 584.626 360.754L586.542 361.328C588.054 356.289 588.781 347.447 588.781 334.918H586.781ZM584.618 360.783C583.371 365.459 580.304 370.613 575.314 376.247L576.811 377.573C581.912 371.814 585.193 366.388 586.55 361.299L584.618 360.783ZM575.299 376.264C564.614 388.892 547.416 405.042 523.667 424.724L524.943 426.264C548.72 406.559 566.026 390.319 576.826 377.556L575.299 376.264ZM523.578 426.181C537.791 441.211 551.873 452.437 565.829 459.825L566.765 458.058C553.052 450.798 539.139 439.725 525.031 424.807L523.578 426.181ZM565.833 459.827C579.958 467.218 597.165 472.291 617.431 475.069L617.702 473.087C597.603 470.332 580.631 465.313 566.76 458.055L565.833 459.827ZM618.566 474.078V196.734H616.566V474.078H618.566ZM711.214 223.332C694.153 220.895 680.131 217.975 669.131 214.578L668.541 216.489C679.677 219.928 693.812 222.867 710.931 225.312L711.214 223.332ZM669.135 214.579C658.299 211.182 645.004 205.592 629.24 197.791L628.353 199.584C644.166 207.408 657.563 213.048 668.537 216.487L669.135 214.579ZM627.797 198.688V307.818H629.797V198.688H627.797ZM629.509 308.52L711.785 225.024L710.36 223.62L628.085 307.116L629.509 308.52Z" fill="#493697" mask="url(#path-5-outside-1_1_95)"/>
</g>
<g filter="url(#filter5_d_1_95)">
<path d="M488.83 460.4V469H361.23V460.4H388.43C381.097 456.667 374.43 451.867 368.43 446L387.03 423.2C402.097 436.4 416.03 443 428.83 443C434.564 443 439.03 441.8 442.23 439.4C445.564 436.867 447.23 433.533 447.23 429.4C447.23 425.133 445.497 421.8 442.03 419.4C438.564 416.867 431.697 414.333 421.43 411.8C405.164 407.933 393.23 402.933 385.63 396.8C378.164 390.533 374.43 380.8 374.43 367.6C374.43 354.267 379.164 344 388.63 336.8C398.23 329.6 410.164 326 424.43 326C433.764 326 443.097 327.6 452.43 330.8C461.764 334 469.897 338.533 476.83 344.4L461.03 367.2C448.897 358 436.364 353.4 423.43 353.4C418.23 353.4 414.097 354.667 411.03 357.2C408.097 359.6 406.63 362.867 406.63 367C406.63 371 408.43 374.2 412.03 376.6C415.764 379 424.23 381.867 437.43 385.2C450.764 388.4 461.097 393.267 468.43 399.8C475.764 406.333 479.43 415.4 479.43 427C479.43 441.4 474.03 452.533 463.23 460.4H488.83Z" fill="white"/>
</g>
<g filter="url(#filter6_d_1_95)">
<path d="M359.583 460.4V469H194.383V460.4H238.983C228.049 454.133 219.383 445.533 212.983 434.6C206.716 423.667 203.583 411.533 203.583 398.2C203.583 377.667 210.649 360.533 224.783 346.8C238.916 332.933 256.316 326 276.983 326C297.649 326 315.049 332.933 329.183 346.8C343.316 360.533 350.383 377.667 350.383 398.2C350.383 411.533 347.183 423.667 340.783 434.6C334.383 445.533 325.783 454.133 314.983 460.4H359.583ZM318.583 398.4C318.583 385.867 314.583 375.2 306.583 366.4C298.583 357.6 288.716 353.2 276.983 353.2C265.383 353.2 255.583 357.6 247.583 366.4C239.583 375.2 235.583 385.867 235.583 398.4C235.583 410.8 239.583 421.4 247.583 430.2C255.583 438.867 265.383 443.2 276.983 443.2C288.716 443.2 298.583 438.867 306.583 430.2C314.583 421.4 318.583 410.8 318.583 398.4Z" fill="white"/>
</g>
<defs>
<filter id="filter0_d_1_95" x="73.9641" y="327.2" width="141.6" height="151.8" filterUnits="userSpaceOnUse" color-interpolation-filters="sRGB">
<feFlood flood-opacity="0" result="BackgroundImageFix"/>
<feColorMatrix in="SourceAlpha" type="matrix" values="0 0 0 0 0 0 0 0 0 0 0 0 0 0 0 0 0 0 127 0" result="hardAlpha"/>
<feOffset dx="4" dy="4"/>
<feGaussianBlur stdDeviation="3"/>
<feComposite in2="hardAlpha" operator="out"/>
<feColorMatrix type="matrix" values="0 0 0 0 0.287944 0 0 0 0 0.212014 0 0 0 0 0.591667 0 0 0 1 0"/>
<feBlend mode="difference" in2="BackgroundImageFix" result="effect1_dropShadow_1_95"/>
<feBlend mode="normal" in="SourceGraphic" in2="effect1_dropShadow_1_95" result="shape"/>
</filter>
<filter id="filter1_d_1_95" x="978.004" y="327.2" width="162.2" height="151.8" filterUnits="userSpaceOnUse" color-interpolation-filters="sRGB">
<feFlood flood-opacity="0" result="BackgroundImageFix"/>
<feColorMatrix in="SourceAlpha" type="matrix" values="0 0 0 0 0 0 0 0 0 0 0 0 0 0 0 0 0 0 127 0" result="hardAlpha"/>
<feOffset dx="4" dy="4"/>
<feGaussianBlur stdDeviation="3"/>
<feComposite in2="hardAlpha" operator="out"/>
<feColorMatrix type="matrix" values="0 0 0 0 0.287944 0 0 0 0 0.212014 0 0 0 0 0.591667 0 0 0 1 0"/>
<feBlend mode="difference" in2="BackgroundImageFix" result="effect1_dropShadow_1_95"/>
<feBlend mode="normal" in="SourceGraphic" in2="effect1_dropShadow_1_95" result="shape"/>
</filter>
<filter id="filter2_d_1_95" x="836.144" y="327.2" width="166.2" height="151.8" filterUnits="userSpaceOnUse" color-interpolation-filters="sRGB">
<feFlood flood-opacity="0" result="BackgroundImageFix"/>
<feColorMatrix in="SourceAlpha" type="matrix" values="0 0 0 0 0 0 0 0 0 0 0 0 0 0 0 0 0 0 127 0" result="hardAlpha"/>
<feOffset dx="4" dy="4"/>
<feGaussianBlur stdDeviation="3"/>
<feComposite in2="hardAlpha" operator="out"/>
<feColorMatrix type="matrix" values="0 0 0 0 0.287944 0 0 0 0 0.212014 0 0 0 0 0.591667 0 0 0 1 0"/>
<feBlend mode="difference" in2="BackgroundImageFix" result="effect1_dropShadow_1_95"/>
<feBlend mode="normal" in="SourceGraphic" in2="effect1_dropShadow_1_95" result="shape"/>
</filter>
<filter id="filter3_d_1_95" x="675.088" y="327.2" width="201.8" height="151.8" filterUnits="userSpaceOnUse" color-interpolation-filters="sRGB">
<feFlood flood-opacity="0" result="BackgroundImageFix"/>
<feColorMatrix in="SourceAlpha" type="matrix" values="0 0 0 0 0 0 0 0 0 0 0 0 0 0 0 0 0 0 127 0" result="hardAlpha"/>
<feOffset dx="4" dy="4"/>
<feGaussianBlur stdDeviation="3"/>
<feComposite in2="hardAlpha" operator="out"/>
<feColorMatrix type="matrix" values="0 0 0 0 0.287944 0 0 0 0 0.212014 0 0 0 0 0.591667 0 0 0 1 0"/>
<feBlend mode="difference" in2="BackgroundImageFix" result="effect1_dropShadow_1_95"/>
<feBlend mode="normal" in="SourceGraphic" in2="effect1_dropShadow_1_95" result="shape"/>
</filter>
<filter id="filter4_d_1_95" x="431.762" y="143.01" width="359.59" height="394.99" filterUnits="userSpaceOnUse" color-interpolation-filters="sRGB">
<feFlood flood-opacity="0" result="BackgroundImageFix"/>
<feColorMatrix in="SourceAlpha" type="matrix" values="0 0 0 0 0 0 0 0 0 0 0 0 0 0 0 0 0 0 127 0" result="hardAlpha"/>
<feOffset dx="4" dy="4"/>
<feGaussianBlur stdDeviation="7.5"/>
<feComposite in2="hardAlpha" operator="out"/>
<feColorMatrix type="matrix" values="0 0 0 0 0.491077 0 0 0 0 0.29276 0 0 0 0 0.9125 0 0 0 1 0"/>
<feBlend mode="exclusion" in2="BackgroundImageFix" result="effect1_dropShadow_1_95"/>
<feBlend mode="normal" in="SourceGraphic" in2="effect1_dropShadow_1_95" result="shape"/>
</filter>
<filter id="filter5_d_1_95" x="359.23" y="324" width="139.6" height="155" filterUnits="userSpaceOnUse" color-interpolation-filters="sRGB">
<feFlood flood-opacity="0" result="BackgroundImageFix"/>
<feColorMatrix in="SourceAlpha" type="matrix" values="0 0 0 0 0 0 0 0 0 0 0 0 0 0 0 0 0 0 127 0" result="hardAlpha"/>
<feOffset dx="4" dy="4"/>
<feGaussianBlur stdDeviation="3"/>
<feComposite in2="hardAlpha" operator="out"/>
<feColorMatrix type="matrix" values="0 0 0 0 0.287944 0 0 0 0 0.212014 0 0 0 0 0.591667 0 0 0 1 0"/>
<feBlend mode="difference" in2="BackgroundImageFix" result="effect1_dropShadow_1_95"/>
<feBlend mode="normal" in="SourceGraphic" in2="effect1_dropShadow_1_95" result="shape"/>
</filter>
<filter id="filter6_d_1_95" x="192.383" y="324" width="177.2" height="155" filterUnits="userSpaceOnUse" color-interpolation-filters="sRGB">
<feFlood flood-opacity="0" result="BackgroundImageFix"/>
<feColorMatrix in="SourceAlpha" type="matrix" values="0 0 0 0 0 0 0 0 0 0 0 0 0 0 0 0 0 0 127 0" result="hardAlpha"/>
<feOffset dx="4" dy="4"/>
<feGaussianBlur stdDeviation="3"/>
<feComposite in2="hardAlpha" operator="out"/>
<feColorMatrix type="matrix" values="0 0 0 0 0.287944 0 0 0 0 0.212014 0 0 0 0 0.591667 0 0 0 1 0"/>
<feBlend mode="difference" in2="BackgroundImageFix" result="effect1_dropShadow_1_95"/>
<feBlend mode="normal" in="SourceGraphic" in2="effect1_dropShadow_1_95" result="shape"/>
</filter>
</defs>
</svg>
